<svg id="Capa_1" data-name="Capa 1" xmlns="http://www.w3.org/2000/svg" viewBox="0 0 2699.58 1002.42"><defs><style>.cls-1{fill:none;stroke:#1d1d1b;stroke-miterlimit:10;stroke-width:12.47px;}.cls-2{font-size:416.78px;font-family:Marola;}.cls-3{letter-spacing:-0.04em;}.cls-4{letter-spacing:0.03em;}.cls-5{letter-spacing:0.03em;}.cls-6{letter-spacing:0.03em;}.cls-7{letter-spacing:-0.04em;}.cls-8{letter-spacing:-0.05em;}</style></defs><path class="cls-1" d="M661,609.72C755.6,516.47,796.84,472,815.93,449.17c4.69-5.61,27-32,58.5-66.31,5.31-5.78,11.17-12,18.37-19.32a1214.67,1214.67,0,0,1,165-141.29c29.72-19.91,115.12-71.11,230.6-59.94,106.11,10.26,178.43,67.45,206.22,92.05,118.75,75.31,208.53,79.93,268.1,70.64,116.89-18.21,164.93-97.34,281.21-79.2,24.78,3.86,94.86,14.8,148,75.25,62.28,70.9,45.72,146.74,101.38,188.06,25,18.6,69.77,33.94,153.73,2.14" transform="translate(-177.48 -154.5)"/><path class="cls-1" d="M2097,465.18c-4.12,7.55-31.46,55.77-86.24,66.37-59.62,11.53-101.85-31.15-106.86-36.4" transform="translate(-177.48 -154.5)"/><path class="cls-1" d="M1470.23,566.91c-20.19,5-51.18,9.46-86.24,0-38.11-10.28-47.47-28-80.62-42.82-68.5-30.71-137.59-4.08-153.73,2.15-6.83,2.63-15.7,7.68-33.61,17.32-35.57,19.13-63.8,36.75-82.63,49l-20.62,17.62" transform="translate(-177.48 -154.5)"/><line class="cls-1" x1="430.34" y1="455.22" x2="2286.38" y2="455.22"/><text class="cls-2" transform="translate(578.97 805.03)"><tspan class="cls-3">E</tspan><tspan class="cls-4" x="263.82" y="0">u</tspan><tspan class="cls-5" x="515.13" y="0">f</tspan><tspan class="cls-6" x="749.35" y="0">o</tspan><tspan class="cls-7" x="1005.67" y="0">r</tspan><tspan class="cls-8" x="1139.03" y="0">i</tspan><tspan x="1247.81" y="0">a</tspan></text></svg>